<?xml version="1.0" encoding="utf-8"?>
<!-- Generator: Adobe Illustrator 27.2.0, SVG Export Plug-In . SVG Version: 6.00 Build 0)  -->
<svg version="1.1" id="katman_1" xmlns="http://www.w3.org/2000/svg" xmlns:xlink="http://www.w3.org/1999/xlink" x="0px" y="0px"
	 viewBox="0 0 595.28 841.89" style="enable-background:new 0 0 595.28 841.89;" xml:space="preserve">
<style type="text/css">
	.st0{fill:#C5A8A8;}
	.st1{fill:#E62E1F;stroke:#000000;stroke-miterlimit:10;}
	.st2{stroke:#000000;stroke-miterlimit:10;}
	.st3{fill:#491D32;stroke:#000000;stroke-miterlimit:10;}
	.st4{fill:#E62E1F;}
	.st5{fill:#C5A8A8;stroke:#000000;stroke-miterlimit:10;}
	.st6{fill:#A8BA77;stroke:#301F10;stroke-miterlimit:10;}
	.st7{fill:#9EC41C;stroke:#000000;stroke-miterlimit:10;}
	.st8{fill:none;stroke:#000000;stroke-miterlimit:10;}
	.st9{fill:#121212;stroke:#000000;stroke-miterlimit:10;}
	.st10{fill:#D41116;}
	.st11{fill:none;stroke:#3C3C3B;stroke-miterlimit:10;}
</style>
<path class="st0" d="M205.97,511.04c0,0-1.72,3.77,0.57,6.52c2.29,2.75,13.59,11.82,14.46,12.86c0.86,1.04,3.07,5.8,2.9,9.18
	c-0.17,3.38-1.47,12.99-1.47,12.99s-0.85,4.31-2.2,4.23c-1.35-0.08-0.57-0.03-0.57-0.03s-6.79,0.43-12.61-6.55
	c-5.82-6.98-5.45,2.68-5.45,2.68s-0.9,3.43-6.56,3.1c-5.66-0.33-5.9-2.67-7.01-3.99s-2.3-3.57-3.1-4.54
	c-0.81-0.97-2.84-0.94-2.84-0.94s-2.99,11.06-5.51,10.91s-10.66-1.3-13.29-4.46s-5.43-6.61-5.29-9.51
	c0.15-2.9,0.85-11.38,3.22-13.66s8.84-3.65,11.11-5.84c2.27-2.19,4.22-3.14,4.28-4.4s0.19-3.77,0.19-3.77s7.16,0.08,7.37,0.34
	s8.34-0.96,8.88-0.93c0.54,0.03,6.91-1.24,6.91-1.24L205.97,511.04z"/>
<path class="st0" d="M434.97,510.18c0,0,0.92,4.26-2.09,6.44c-3.01,2.18-16.83,8.42-17.96,9.24c-1.14,0.82-4.52,5.06-5.12,8.52
	c-0.6,3.46-1.47,13.5-1.47,13.5s-0.11,4.57,1.31,4.84c1.42,0.27,0.6,0.11,0.6,0.11s6.95,2.19,14.6-3.35s5.04,4.12,5.04,4.12
	s0.14,3.7,6.09,4.83s6.74-1.17,8.19-2.22c1.45-1.05,3.21-3.01,4.27-3.78c1.06-0.77,3.16-0.22,3.16-0.22s0.56,11.94,3.2,12.45
	c2.64,0.5,11.36,1.45,14.82-1.06c3.46-2.51,7.16-5.27,7.68-8.24s1.74-11.71-0.19-14.63c-1.93-2.92-8.33-5.97-10.18-8.77
	c-1.85-2.8-3.65-4.27-3.43-5.55c0.22-1.28,0.67-3.85,0.67-3.85s-7.45-1.77-7.73-1.57c-0.28,0.2-8.43-3.13-9-3.24
	s-6.89-3.04-6.89-3.04L434.97,510.18z"/>
<path class="st1" d="M367.72,584.7c0,0,3.76,23.41,4.16,24.06c0.4,0.65,0.4,0.65,0.4,0.65l3.87,10.95l4.13,10.2l5.66,8.54l4.11,7.36
	c0,0,5.12,11.64,4.95,17.15c-0.17,5.51-3.18,8.31-4.1,9.63s-6.16,1.63-8.02,1.57s-10.46-0.36-14.16-0.48s-23.16-1.43-24.88-4.25
	c-1.72-2.82-14.18-23.55-13.55-43.49c0.62-19.93,1.26-40.44,1.54-49.2c0.27-8.77,1.51-18.63,1.51-18.63l5.54,3.44l8.94,4.41
	l8.78,3.56l5.98,1.34l4.06,0.56L367.72,584.7z"/>
<path class="st1" d="M290.08,584.36c0,0-4.16,23.13-4.54,23.76c-0.38,0.63-0.38,0.63-0.38,0.63l-3.89,10.74l-4.1,10l-5.46,8.29
	l-4,7.17c0,0-5.05,11.39-5.06,16.87c-0.01,5.49,2.67,8.37,3.48,9.71c0.81,1.34,5.62,1.84,7.32,1.84c1.7,0,9.62,0.01,13.03,0.02
	c3.41,0,21.33-0.61,23-3.35c1.66-2.74,13.74-22.91,13.76-42.74s0.05-40.22,0.06-48.94s-0.83-18.57-0.83-18.57l-5.2,3.23l-8.35,4.07
	l-8.18,3.22l-5.54,1.12l-3.75,0.42L290.08,584.36z"/>
<path class="st2" d="M341.11,338.24c-23.12-1.04-40.39-1.82-57.97,3.66c-11.7,3.65-19.98,8.95-22.99,10.98
	c-20.36,13.73-29.66,32.72-35.48,44.99c-9.65,20.31-12.65,39.39-13.49,52.83c-1.17,10.47-4.24,42.18,0.69,73.2
	c3.98,25.07,11.48,38.95,13.91,43.2c1.47,2.57,3,4.93,3.7,6.01c4.7,7.27,11.96,18.33,23.01,26.52c2.92,2.17,5.22,3.41,8.37,5.19
	c2.93,1.64,11.02,6.13,20.83,9.08c8.52,2.56,16.32,2.83,31.91,3.37c13.36,0.47,19.3-0.31,22.26-0.78
	c6.15-0.96,10.96-2.36,14.94-3.54c2.81-0.83,6.78-2.09,19.92-7.39c12.15-4.9,18.3-7.4,21.57-9.49c7.32-4.68,11.85-9.76,15.57-14
	c12.16-13.85,19.61-29.51,24.12-41.93c3.13-8.84,7.05-21.78,9.51-37.83c2.19-14.29,3.68-45.89-4.57-83.99
	c-0.79-3.66-5.11-18.15-13.59-34.77c-4.19-8.2-7.35-12.81-9.77-16.01c-2.63-3.48-7.46-9.85-14.49-15.17
	c-14.75-11.15-32.29-12.4-51.86-13.79C345.11,338.42,343.72,338.35,341.11,338.24z"/>
<path class="st3" d="M112.87,495.49"/>
<path class="st3" d="M218.46,509.24"/>
<path class="st4" d="M240.39,455.08c0,0-33.32,41.09-31.56,48.99s-21.04,16.45-21.04,16.45l-8.4,2.16c0,0-3.15,0.81-3.72-1.73
	c0,0-2.06-8.82,0.54-13.37c2.6-4.55,23.21-68.62,32.4-70.99c9.19-2.36,25.3,5.13,28.12,6.99s5.77,6.77,5.95,7.62
	S240.39,455.08,240.39,455.08z"/>
<path class="st1" d="M354.11,317.17c0,0,0.41-4.22,3.7-6.35c0,0,2.25-1.61,4.45-2.2c2.2-0.59,4.94-1.08,5.51-1.09
	s10.7-1.05,14.21-0.1s6.55,3.62,6.55,3.62s2.85,2.63,3.87,5.3c1.02,2.68,6.4,10.21,6.4,10.21s3.19,4.18,6.38,7.06
	c3.19,2.88,3.19,2.88,3.19,2.88s2.7-12.78-0.13-21.53c-2.84-8.75-6.73-16.92-8.68-21.62s-11.69-12.61-14.39-13.6
	c-2.69-1-7.71-4.66-21.72-4.78s-18.52,1.72-24.17,3.14c-5.65,1.42-8.01,8.46-8.01,8.46s15.84,15.62,17.53,24.82
	c1.69,9.2,1.69,9.2,1.69,9.2s1.26,1.3,2.6,0.63s1.04-2.76,1.04-2.76L354.11,317.17z"/>
<path class="st1" d="M329.05,289.05c0,0,10.66,9.1,13.8,16.28c3.13,7.18,4.59,9.43,4.82,13.5s-0.8,3.94-0.8,3.94
	s-1.88,1.61-2.45-2.31c0,0-3.37-6.02-10.28-8.59c-6.92-2.57-9.3-4.45-24.74-3.83c0,0-9.64,1.45-16.9,4.55
	c-7.25,3.11-14.53,8.18-19.03,13.88c0,0-5.19,9.28-11.15,11.94s-5.96,2.66-5.96,2.66s-10.89-28.67-1.68-38.34s9.21-9.67,9.21-9.67
	s9.12-6.68,15.81-7.75c6.69-1.06,17.18-2.74,24.91-1.41c7.73,1.33,5.35-0.04,14.53,2.52C328.33,288.98,329.05,289.05,329.05,289.05z
	"/>
<path class="st5" d="M393.55,346.36c0,0,13.98-24.59,7.15-40.78c-6.83-16.2-13.55-22.52-25.28-28.86
	c-11.73-6.34-42.12-1.79-46.18,4.53c-4.06,6.32-4.06,6.32-4.06,6.32s-15.94-6.11-29.22-3.94c-13.28,2.17-19.84,1.94-32.83,16.01
	c-12.99,14.07,4.31,48.39,4.31,48.39l0.86,1.59l33.05-3.29l20.33-1.14l25.29-0.21l24.79,1.06l12.4,1.08l6.39,0.74l2.35,0.31
	L393.55,346.36z"/>
<path class="st0" d="M271.37,343.77c0,0,25.27-4.11,40.95-3.45c15.67,0.65,22.86,1.38,22.86,1.38s4.33-20.35-2.32-27.03
	s-13.43-9.85-22.49-10.15s-16.11,2.41-22.18,5.88c-6.08,3.47-10.81,5.1-15.93,13.85c-5.12,8.75-1.61,18.63-1.61,18.63L271.37,343.77
	z"/>
<path class="st0" d="M354.21,341.27l26.09,4.12c0,0,3.43-3.99,5.7-9.44c2.27-5.45,3.21-15.68,3.21-15.68s-2.23-11.95-16.06-12.18
	c-13.82-0.23-17.4,3.92-17.4,3.92s-4.15,3.94-3.98,7.75c0.17,3.8,0.22,12.5,0.83,17.39c0.61,4.89,0.31,4.02,0.31,4.02L354.21,341.27
	z"/>
<path class="st6" d="M174.89,486.63"/>
<path class="st0" d="M386,319.31c0,0,0.75,7.19-3.85,11.37c-4.61,4.18-10.96,3.72-10.96,3.72s-4.57,0.54-7.05-3.11
	c-2.48-3.65-6.66-13.39,1.68-16.59c8.35-3.2,13.48-1.51,13.48-1.51S386.07,316.14,386,319.31z"/>
<path class="st0" d="M307.41,305.1c0,0,11.39-2.4,15.86,3.44s5.26,9.86,4.27,13.79s-3.95,7.83-9.28,8.29c0,0-14.88,1.94-19.08-3.5
	c0,0-10.41-13.67-0.32-19.45C298.86,307.66,306.41,305.28,307.41,305.1z"/>
<path class="st7" d="M229.64,256.27"/>
<path class="st3" d="M260.27,438.89"/>
<path class="st3" d="M262.64,447.64"/>
<path class="st3" d="M330.23,339.54"/>
<path class="st1" d="M409.85,438.6c0,0,25.1,50.12,21.46,57.65c-3.65,7.52,18.04,22.06,18.04,22.06l8.22,4.36
	c0,0,3.08,1.63,4.25-0.78c0,0,4.17-8.37,2.52-13.64c-1.65-5.26-8.27-75.31-17.26-80.07c-8.99-4.77-27.43-1.37-30.78-0.22
	c-3.35,1.15-7.54,5.34-7.93,6.15C407.98,434.91,409.85,438.6,409.85,438.6z"/>
<path class="st6" d="M585.15,644.92"/>
<path class="st8" d="M325.19,287.57l1.08,2.05c0,0,9.49,13.71,8.98,35.68s-0.51,21.97-0.51,21.97l0.21,0.76"/>
<path class="st9" d="M262.64,399.38c0,0-18.69,15.59,0,33.48c18.69,17.9-44.18,68.12-44.18,68.12s-4.64,38.1,11.18,43.3
	c15.82,5.2,39.84-44.45,39.84-44.45s5.39-64.79,0-70.43c-5.39-5.64-7.44-23.09,0-23.67c7.44-0.58,0-11.55,0-11.55
	S256.19,392.63,262.64,399.38z"/>
<path class="st9" d="M385.24,399.38c0,0,18.69,15.59,0,33.48c-18.69,17.9,44.18,68.12,44.18,68.12s4.64,38.1-11.18,43.3
	c-15.82,5.2-39.84-44.45-39.84-44.45s-5.39-64.79,0-70.43c5.39-5.64,7.44-23.09,0-23.67c-7.44-0.58,0-11.55,0-11.55
	S391.69,392.63,385.24,399.38z"/>
<path class="st9" d="M303.02,451.55c0,0-4.25,36.63,10.73,35.08c14.98-1.55,27.05-9.18,27.05-9.18s-12.89-5.44-12.89-23.29
	c0-17.85-15.97,23.07-16.73,0s-10.71,1.98-10.71-11.2C300.48,429.79,303.02,451.55,303.02,451.55z"/>
<path class="st9" d="M272.78,569.04c0,0-2.96-20.7,14.95-15.64c17.91,5.06,22.74,22.13,22.74,22.13s-7.13,24.05-15.63,15.15
	c-8.51-8.9-26.22-3.61-14.84-15.52C291.38,563.26,272.78,569.04,272.78,569.04z"/>
<path class="st9" d="M344.73,569.04l-10.81-14.67c0,0,10.58-19.72,29.43,0c18.85,19.72,14.71,26.93,4.83,26.93
	c-9.89,0-36.33,11.54-31.96,0s11.73-7.7,11.73-7.7s11.73-2.16,4.83-5.05C345.88,565.67,344.73,569.04,344.73,569.04z"/>
<path class="st10" d="M284.97,640.18c0,0,0.24-8.73,8.35-8.73s23.72,5.24,12.75,13.34c-10.97,8.1-3.38,12.6-16.29,10.49
	c-12.91-2.12-17.18-5.56-17.18-5.56s-5.61-7.94,5.03-7.94S284.97,640.18,284.97,640.18z"/>
<path class="st10" d="M366.39,640.18c0,0-0.24-8.73-8.35-8.73s-23.72,5.24-12.75,13.34c10.97,8.1,3.38,12.6,16.29,10.49
	c12.91-2.12,17.18-5.56,17.18-5.56s5.61-7.94-5.03-7.94S366.39,640.18,366.39,640.18z"/>
<path class="st10" d="M210.58,447.64"/>
<path class="st4" d="M214.63,447.64"/>
<path class="st10" d="M211.17,450.7l-11.12,15.09l-1.31,13.69l-7.78,12.62l-4.46,11.89l-4.37,4.12l-5.32,7.72c0,0,9.03,5.89,11.88,0
	c2.84-5.89-2.84-10.46,0-13.44s15.86-8.81,12.14-12.7c-3.72-3.89-2-8.12,0-10.22s-5.58-11.4,6.89-11.4
	C220.17,468.08,211.17,450.7,211.17,450.7z"/>
<path class="st10" d="M429.2,435.47l11.12,15.09l1.31,13.69l7.78,12.62l4.46,11.89l4.37,4.12l5.32,7.72c0,0-9.03,5.89-11.88,0
	c-2.84-5.89,2.84-10.46,0-13.44c-2.84-2.97-15.86-8.81-12.14-12.7c3.72-3.89,2-8.12,0-10.22s5.58-11.4-6.89-11.4
	S429.2,435.47,429.2,435.47z"/>
<path class="st11" d="M235.31,438.73l9.99,8.91c0,0,3.84,11.8,0,12.23c-3.84,0.43-6.71,0-6.71,0"/>
<path class="st11" d="M415.39,421.98l-9.99,8.91c0,0-3.84,11.8,0,12.23c3.84,0.43,6.71,0,6.71,0"/>
</svg>
