<?xml version="1.0" encoding="utf-8"?>
<!-- Generator: Adobe Illustrator 27.2.0, SVG Export Plug-In . SVG Version: 6.00 Build 0)  -->
<svg version="1.1" xmlns="http://www.w3.org/2000/svg" xmlns:xlink="http://www.w3.org/1999/xlink" x="0px" y="0px"
	 viewBox="0 0 595.28 841.89" style="enable-background:new 0 0 595.28 841.89;" xml:space="preserve">
<style type="text/css">
	.st0{fill:#050B0C;stroke:#081314;stroke-miterlimit:10;}
	.st1{fill:#6E6E6D;stroke:#081314;stroke-miterlimit:10;}
	.st2{fill:#2A4144;stroke:#081314;stroke-miterlimit:10;}
	.st3{fill:#F4F4F4;stroke:#081314;stroke-miterlimit:10;}
	.st4{fill:#F8F7F7;stroke:#081314;stroke-miterlimit:10;}
</style>
<g id="kanatlar">
	<polygon class="st0" points="312.04,359.36 259.83,320.04 230.6,320.55 260.47,359.36 	"/>
	<polygon class="st0" points="97.71,386.55 73.97,416.68 101.29,416.68 116.1,405.96 	"/>
	<polygon class="st0" points="307.96,447.21 277.06,466.98 240.81,466.35 256.26,446.43 	"/>
</g>
<g id="alt_parça">
	<path class="st1" d="M543.62,410.55c0,0,2.43,5.49,0,9.45c-2.43,3.96,7.66,31.15-173.87,28.85s-181.53-2.3-181.53-2.3
		s-58.77-24.9-67.83-36.64c-9.06-11.74,422.68,0,422.68,0"/>
</g>
<g id="üst_parça">
	<path class="st2" d="M543.06,409.91c0,0-3.83-15.57-29.36-27.45c0,0-35.74-17.49-54.38-19.66c-18.64-2.17-48.77-3.06-59.23-2.94
		s-87.83,0.51-87.83,0.51l-160.72,0.26l-67.15-54H40.72c11.72,20.26,26.65,42.75,45.62,65.87c3.79,4.62,7.58,9.07,11.35,13.35
		c7.68,8.71,15.29,16.72,22.69,24.06C261.28,409.91,402.17,409.91,543.06,409.91z"/>
</g>
<g id="pencereler">
	<path class="st3" d="M538.51,401.61h-52.85c0,0-16.72-2.94-18.77-15.06c0,0-3.57-9.7,6.26-12c9.83-2.3,23.11,0,23.11,0
		c3.18,1.08,7.27,2.62,11.89,4.77c2.36,1.1,7.16,3.35,12.25,6.61C525.02,388.88,531.65,393.8,538.51,401.61z"/>
	<ellipse class="st3" cx="439.64" cy="388.85" rx="8.36" ry="7.28"/>
	<ellipse class="st3" cx="305.66" cy="388.85" rx="8.36" ry="7.28"/>
	<ellipse class="st4" cx="406.22" cy="388.85" rx="8.36" ry="7.28"/>
	<ellipse class="st4" cx="338.72" cy="388.85" rx="8.36" ry="7.28"/>
	<ellipse class="st3" cx="372.81" cy="388.85" rx="8.36" ry="7.28"/>
	<ellipse class="st4" cx="203.02" cy="388.85" rx="8.36" ry="7.28"/>
	<ellipse class="st4" cx="237.74" cy="388.85" rx="8.36" ry="7.28"/>
	<ellipse class="st4" cx="270.68" cy="388.85" rx="8.36" ry="7.28"/>
</g>
<g id="katman_6">
</g>
<g id="katman_7">
</g>
</svg>
